<svg version="1.1" xmlns="http://www.w3.org/2000/svg" xmlns:xlink="http://www.w3.org/1999/xlink" x="0px" y="0px"
	 viewBox="0 0 216 216" style="enable-background:new 0 0 216 216;" xml:space="preserve" id="icon">
<style type="text/css">
	.st0{fill:#FFFFFF;}
	.st1{fill:#D1D3D4;}
	.st2{fill:#FFFFFF;stroke:#D1D3D4;stroke-width:8;stroke-miterlimit:10;}
	.st3{fill:none;stroke:#D1D3D4;stroke-width:8;stroke-miterlimit:10;}
	
	@media screen and (max-width:150px){/* svg 150px에서 작동하는 CSS */
			#details {display:none;}
			}
			#icon:hover circle,  
			#icon:hover .body{
			fill:#262262;
			stroke:#fff;
			}
			#icon:hover #container .st1{
			fill:#fff;
			
		#container{
			transition:.3s;
			
		}
			}
</style>
<g id="container">
	<g>
		<circle class="st0" cx="108" cy="108" r="104"/>
		<path class="i" d="M108,8c55.14,0,100,44.86,100,100s-44.86,100-100,100S8,163.14,8,108S52.86,8,108,8 M108,0
			C48.353,0,0,48.353,0,108s48.353,108,108,108s108-48.353,108-108S167.647,0,108,0L108,0z"/>
	</g>
</g>
<g id="magnifier">
	<g>
		<path class="st0" d="M78.729,106.862c-8.504,0-16.499-3.312-22.512-9.325c-12.413-12.413-12.413-32.61,0-45.023
			c6.013-6.013,14.008-9.325,22.512-9.325s16.499,3.312,22.512,9.325c12.413,12.413,12.413,32.61,0,45.023
			C95.228,103.55,87.233,106.862,78.729,106.862z"/>
		<path class="st1" d="M78.73,47.189c7.435,0,14.426,2.896,19.684,8.153c10.854,10.854,10.854,28.514,0,39.367
			c-5.258,5.258-12.248,8.153-19.684,8.153s-14.426-2.896-19.684-8.153c-5.258-5.258-8.153-12.248-8.153-19.684
			s2.896-14.426,8.153-19.684C64.304,50.084,71.294,47.189,78.73,47.189 M78.73,39.189c-9.171,0-18.343,3.499-25.34,10.496
			c-13.995,13.995-13.995,36.686,0,50.681c6.998,6.998,16.169,10.496,25.34,10.496s18.343-3.499,25.34-10.496
			c13.995-13.995,13.995-36.686,0-50.681C97.072,42.687,87.901,39.189,78.73,39.189L78.73,39.189z"/>
	</g>
	<path class="st2" d="M161.793,157.194L161.793,157.194c-3.5,3.5-9.228,3.5-12.728,0l-44.548-44.548c-3.5-3.5-3.5-9.228,0-12.728
		l0,0c3.5-3.5,9.228-3.5,12.728,0l44.548,44.548C165.293,147.966,165.293,153.694,161.793,157.194z"/>
</g>
<g id="details">
	<path class="st2" d="M68.945,89.052c-8.124-8.124-8.124-21.343,0-29.467"/>
	<line class="st3" x1="110.881" y1="119.01" x2="123.609" y2="106.282"/>
</g>
</svg>
