<svg version="1.1" xmlns="http://www.w3.org/2000/svg" xmlns:xlink="http://www.w3.org/1999/xlink" x="0px" y="0px"
	 viewBox="0 0 400 400" style="enable-background:new 0 0 400 400;" xml:space="preserve">
<style type="text/css">
	.st0{fill:#212121;}
	.dot{
		fill:#27AAE1;
		animation:blink 1s infinite;
		opacity:0;
	}
	@keyframes blink{
		50% { opacity:1; }
	}
	#d1{ animation-delay:0.1s;}
	#d2{ animation-delay:0.2s;}
	#d3{ animation-delay:0.3s;}
	#d4{ animation-delay:0.4s;}
	#d5{ animation-delay:0.5s;}
	#d6{ animation-delay:0.6s;}
	#d7{ animation-delay:0.7s;}
	#d8{ animation-delay:0.8s;}
	#d9{ animation-delay:0.9s;}
</style>

<g id="container">
	<g>
		<circle class="st0" cx="200" cy="200" r="197.5"/>
	</g>
	<g>
		<circle class="st0" cx="200" cy="200" r="197.5"/>
	</g>
</g>
<g id="dots">
	<path id="d5" class="dot" d="M208.56,348.91c-1.67-9.521,4.69-18.591,14.21-20.261l0,0c9.521-1.67,18.59,4.69,20.261,14.21l0,0
		c1.67,9.521-4.69,18.591-14.211,20.261l0,0c-1.02,0.18-2.039,0.27-3.039,0.27l0,0C217.439,363.39,210.05,357.41,208.56,348.91z"/>
	<path id="d6" class="dot" d="M117.27,343.51c-8.37-4.84-11.24-15.54-6.4-23.91l0,0c4.83-8.37,15.53-11.229,23.9-6.399l0,0
		c8.37,4.84,11.24,15.54,6.4,23.909l0,0c-3.24,5.61-9.12,8.75-15.17,8.75l0,0C123.03,345.859,120.02,345.1,117.27,343.51z"/>
	<path id="d4" class="dot" d="M302.24,308.59c-7.4-6.22-8.36-17.26-2.141-24.66l0,0c6.21-7.399,17.25-8.36,24.65-2.149l0,0
		c7.399,6.21,8.37,17.25,2.149,24.659l0,0l0,0l0,0c-3.46,4.12-8.42,6.25-13.409,6.24l0,0C309.52,312.68,305.52,311.34,302.24,308.59
		z"/>
	<path id="d7_1_" class="dot" d="M44.38,256.8c-3.32-9.08,1.36-19.12,10.43-22.44l0,0c9.08-3.31,19.13,1.36,22.44,10.44l0,0
		c3.32,9.08-1.35,19.12-10.43,22.44l0,0c-1.98,0.72-4.01,1.069-6,1.069l0,0C53.68,268.31,46.97,263.899,44.38,256.8z"/>
	<path id="d3" class="dot" d="M330.62,200h0.01c0-0.01,0-0.02,0-0.03l0,0c0-0.08-0.01-0.16-0.01-0.25l0,0
		c-0.021-9.66,7.8-17.51,17.47-17.53l0,0c9.66-0.02,17.51,7.8,17.53,17.46l0,0c0,0.07,0,0.13,0,0.2l0,0c0,0.05,0,0.1,0,0.15l0,0
		c0,0,0,0,0.01,0l0,0c0,9.66-7.84,17.5-17.51,17.5l0,0C338.46,217.5,330.62,209.66,330.62,200z"/>
	<path id="d8_1_" class="dot" d="M54.75,165.93c-9.09-3.3-13.78-13.34-10.49-22.42l0,0c3.3-9.09,13.34-13.78,22.42-10.49l0,0
		c9.09,3.3,13.78,13.34,10.49,22.42v0.01c-2.59,7.11-9.3,11.53-16.46,11.53l0,0C58.73,166.98,56.72,166.64,54.75,165.93z"/>
	<path id="d2" class="dot" d="M299.92,115.86c-6.23-7.39-5.29-18.43,2.1-24.66l0,0c7.38-6.23,18.42-5.29,24.66,2.09l0,0
		c6.22,7.39,5.29,18.44-2.1,24.66l0,0c-3.29,2.77-7.29,4.13-11.28,4.13l0,0C308.319,122.08,303.38,119.96,299.92,115.86z"/>
	<path id="d9" class="dot" d="M110.62,80.58c-4.85-8.36-2.01-19.07,6.35-23.92l0,0l0,0l0,0c8.36-4.85,19.07-2.01,23.92,6.35l0,0
		c4.85,8.36,2.01,19.07-6.35,23.92l0,0c-2.76,1.61-5.78,2.37-8.77,2.37l0,0C119.74,89.3,113.87,86.17,110.62,80.58z"/>
	<path id="d1" class="dot" d="M222.5,71.3c-9.521-1.65-15.91-10.71-14.25-20.23l0,0c1.649-9.52,10.71-15.9,20.229-14.25l0,0
		c9.521,1.65,15.9,10.71,14.25,20.23l0,0c-1.47,8.51-8.87,14.51-17.22,14.51l0,0C224.52,71.56,223.51,71.48,222.5,71.3z"/>
</g>
</svg>
